Work.Of.Art.The.Next.Great.Artist.S02E05-][ Ripped From the Headlines ][ 10-Nov-2011 ].avi


my convert of the show
xvid High quality 330mb mp3 audio 640x352 pixels

enjoy and help to seed! may take 2 hours to seed out
max speed up to 50kb/s

Mediainfo

General
Complete name                    : J:\Work.Of.Art.The.Next.Great.Artist.S02E05-][ Ripped From the Headlines ][ 10-Nov-2011 ].avi
Format                           : AVI
Format/Info                      : Audio Video Interleave
File size                        : 333 MiB
Duration                         : 43mn 49s
Overall bit rate                 : 1 061 Kbps

Video
ID                               : 0
Format                           : MPEG-4 Visual
Format profile                   : Advanced Simple@L5
Format settings, BVOP            : 2
Format settings, QPel            : No
Format settings, GMC             : No warppoints
Format settings, Matrix          : Default (H.263)
Codec ID                         : XVID
Codec ID/Hint                    : XviD
Duration                         : 43mn 49s
Bit rate                         : 920 Kbps
Width                            : 640 pixels
Height                           : 352 pixels
Display aspect ratio             : 16:9
Frame rate                       : 23.976 fps
Color space                      : YUV
Chroma subsampling               : 4:2:0
Bit depth                        : 8 bits
Scan type                        : Progressive
Compression mode                 : Lossy
Bits/(Pixel*Frame)               : 0.170
Stream size                      : 288 MiB (87%)
Writing library                  : XviD 1.2.1 (UTC 2008-12-04)

Audio
ID                               : 1
Format                           : MPEG Audio
Format version                   : Version 1
Format profile                   : Layer 3
Codec ID                         : 55
Codec ID/Hint                    : MP3
Duration                         : 43mn 48s
Bit rate mode                    : Constant
Bit rate                         : 128 Kbps
Channel(s)                       : 2 channels
Sampling rate                    : 48.0 KHz
Compression mode                 : Lossy
Stream size                      : 40.1 MiB (12%)
Alignment                        : Split accross interleaves
Interleave, duration             : 24 ms (0.58 video frame)


